<?xml version="1.0" encoding="UTF-8" standalone="no"?>
<!-- Created with Inkscape (http://www.inkscape.org/) -->

<svg
   width="720px"
   height="720px"
   viewBox="0 0 720 720"
   version="1.1"
   id="SVGRoot"
   sodipodi:docname="música_todos.svg"
   inkscape:version="1.1.2 (b8e25be833, 2022-02-05)"
   xmlns:inkscape="http://www.inkscape.org/namespaces/inkscape"
   xmlns:sodipodi="http://sodipodi.sourceforge.net/DTD/sodipodi-0.dtd"
   xmlns="http://www.w3.org/2000/svg"
   xmlns:svg="http://www.w3.org/2000/svg">
  <sodipodi:namedview
     id="namedview14"
     pagecolor="#ffffff"
     bordercolor="#666666"
     borderopacity="1.0"
     inkscape:pageshadow="2"
     inkscape:pageopacity="0.0"
     inkscape:pagecheckerboard="0"
     inkscape:document-units="px"
     showgrid="false"
     inkscape:zoom="0.92470539"
     inkscape:cx="395.26103"
     inkscape:cy="210.87798"
     inkscape:window-width="1366"
     inkscape:window-height="705"
     inkscape:window-x="-8"
     inkscape:window-y="-8"
     inkscape:window-maximized="1"
     inkscape:current-layer="layer1" />
  <defs
     id="defs9">
    <rect
       x="188.87678"
       y="243.16929"
       width="43.58695"
       height="138.40768"
       id="rect14093" />
    <rect
       x="185.81805"
       y="236.28714"
       width="87.173898"
       height="109.34971"
       id="rect4809" />
    <rect
       x="188.87679"
       y="243.1693"
       width="43.586948"
       height="138.40768"
       id="rect14093-7" />
  </defs>
  <g
     inkscape:label="Camada 1"
     inkscape:groupmode="layer"
     id="layer1">
    <ellipse
       style="fill:#000000;fill-rule:evenodd;stroke-width:0.187917"
       id="path64"
       ry="14.022056"
       rx="25.605492"
       cy="145.09677"
       cx="3.0891531"
       transform="rotate(-15.50199)" />
    <ellipse
       style="fill:#f9f9f9;fill-rule:evenodd;stroke-width:0.124399"
       id="path64-01"
       ry="9.1430254"
       rx="17.208986"
       cy="142.61803"
       cx="-36.623623"
       transform="matrix(0.8788643,-0.47707183,0.52238795,0.85270794,0,0)" />
    <rect
       style="fill:#000000;stroke-width:0.241642"
       id="rect110-3"
       width="4.1820407"
       height="88.304871"
       x="154.16222"
       y="44.712204" />
    <rect
       style="fill:#000000;stroke-width:0.241642"
       id="rect110-3-3"
       width="4.1820407"
       height="88.304871"
       x="237.81099"
       y="46.215294" />
    <ellipse
       style="fill:#000000;fill-rule:evenodd;stroke-width:0.187917"
       id="path64-7"
       ry="14.022056"
       rx="25.605492"
       cy="168.65872"
       cx="91.7509"
       transform="rotate(-15.50199)" />
    <ellipse
       style="fill:#f9f9f9;fill-rule:evenodd;stroke-width:0.124399"
       id="path64-01-2"
       ry="9.1430254"
       rx="17.208986"
       cy="185.56859"
       cx="42.22464"
       transform="matrix(0.8788643,-0.47707183,0.52238795,0.85270794,0,0)" />
    <ellipse
       style="fill:#000000;fill-rule:evenodd;stroke-width:0.187917"
       id="path64-0"
       ry="14.022056"
       rx="25.605492"
       cy="192.81963"
       cx="171.99612"
       transform="rotate(-15.50199)" />
    <rect
       style="fill:#000000;stroke-width:0.241642"
       id="rect110-3-3-6"
       width="4.1820407"
       height="88.304871"
       x="312.33762"
       y="48.162983" />
    <rect
       style="fill:#000000;stroke-width:0.236257"
       id="rect110-3-3-6-2"
       width="4.1820407"
       height="84.412933"
       x="-52.345028"
       y="312.33762"
       transform="rotate(-90)" />
    <ellipse
       style="fill:#000000;fill-rule:evenodd;stroke-width:0.187917"
       id="path64-0-7"
       ry="14.022056"
       rx="25.605492"
       cy="214.61531"
       cx="243.29099"
       transform="rotate(-15.50199)" />
    <rect
       style="fill:#000000;stroke-width:0.241642"
       id="rect110-3-3-6-0"
       width="4.1820407"
       height="88.304871"
       x="393.99008"
       y="48.162983" />
    <ellipse
       style="fill:#000000;fill-rule:evenodd;stroke-width:0.187917"
       id="path64-0-7-2"
       ry="14.022056"
       rx="25.605492"
       cy="236.43887"
       cx="321.97333"
       transform="rotate(-15.50199)" />
    <rect
       style="fill:#000000;stroke-width:0.241642"
       id="rect110-3-3-6-9"
       width="4.1820407"
       height="88.304871"
       x="51.517509"
       y="217.51569" />
    <rect
       style="fill:#000000;stroke-width:0.241642"
       id="rect110-3-3-6-9-2"
       width="4.1820407"
       height="88.304871"
       x="-649.85339"
       y="7.755991"
       transform="rotate(-90)" />
    <rect
       style="fill:#000000;stroke-width:0.236257"
       id="rect110-3-3-6-2-0"
       width="4.1820407"
       height="84.412933"
       x="-221.69775"
       y="51.517509"
       transform="rotate(-90)" />
    <rect
       style="fill:#000000;stroke-width:0.236257"
       id="rect110-3-3-6-2-0-1"
       width="4.1820407"
       height="84.412933"
       x="-198.44624"
       y="21.816925"
       transform="rotate(-90)" />
    <rect
       style="fill:#000000;stroke-width:0.236257"
       id="rect110-3-3-6-2-0-1-5"
       width="4.1820407"
       height="84.412933"
       x="-198.44624"
       y="163.91203"
       transform="rotate(-90)" />
    <rect
       style="fill:#000000;stroke-width:0.111147"
       id="rect110-3-3-6-2-0-1-5-7"
       width="4.1820407"
       height="18.68248"
       x="-23.736919"
       y="-212.9467"
       transform="scale(-1)" />
    <rect
       style="fill:#000000;stroke-width:0.111147"
       id="rect110-3-3-6-2-0-1-5-7-2"
       width="4.1820407"
       height="18.68248"
       x="-249.45598"
       y="-212.9467"
       transform="scale(-1)" />
    <ellipse
       style="fill:#000000;fill-rule:evenodd;stroke-width:0.187917"
       id="path64-0-7-1"
       ry="14.022056"
       rx="25.605492"
       cy="308.09729"
       cx="-53.303997"
       transform="rotate(-15.50199)" />
    <rect
       style="fill:#000000;stroke-width:0.241642"
       id="rect110-3-3-6-0-2"
       width="4.1820407"
       height="88.304871"
       x="133.16995"
       y="217.51569" />
    <ellipse
       style="fill:#000000;fill-rule:evenodd;stroke-width:0.187917"
       id="path64-0-7-2-2"
       ry="14.022056"
       rx="25.605492"
       cy="329.92087"
       cx="25.378323"
       transform="rotate(-15.50199)" />
    <rect
       style="fill:#000000;stroke-width:0.236257"
       id="rect110-3-3-6-2-0-2"
       width="4.1820407"
       height="84.412933"
       x="-221.69772"
       y="133.16995"
       transform="rotate(-90)" />
    <rect
       style="fill:#000000;stroke-width:0.241642"
       id="rect110-3-3-6-0-2-1"
       width="4.1820407"
       height="88.304871"
       x="214.8224"
       y="217.51567" />
    <ellipse
       style="fill:#000000;fill-rule:evenodd;stroke-width:0.187917"
       id="path64-0-7-2-2-4"
       ry="14.022056"
       rx="25.605492"
       cy="351.74423"
       cx="104.06034"
       transform="rotate(-15.50199)" />
    <text
       xml:space="preserve"
       id="text4807"
       style="font-style:normal;font-weight:normal;font-size:93.3333px;line-height:1.25;font-family:sans-serif;white-space:pre;shape-inside:url(#rect4809);fill:#000000;fill-opacity:1;stroke:none"
       transform="translate(30.881383,-34.763916)" />
    <text
       xml:space="preserve"
       id="text14091"
       style="font-style:normal;font-variant:normal;font-weight:normal;font-stretch:normal;font-size:96px;line-height:1.25;font-family:AmpleSoundTab;-inkscape-font-specification:AmpleSoundTab;white-space:pre;shape-inside:url(#rect14093);fill:#000000;fill-opacity:1;stroke:none"
       transform="matrix(0.56551148,0,0,0.56551148,17.75261,7.3801627)"><tspan
         x="188.87695"
         y="329.82502"
         id="tspan28069">3</tspan></text>
    <rect
       style="fill:#000000;stroke-width:0.241642"
       id="rect110-3-3-6-9-1"
       width="4.1820407"
       height="88.304871"
       x="313.36707"
       y="210.53337" />
    <rect
       style="fill:#000000;stroke-width:0.236257"
       id="rect110-3-3-6-2-0-6"
       width="4.1820407"
       height="84.412933"
       x="-214.71544"
       y="313.36707"
       transform="rotate(-90)" />
    <ellipse
       style="fill:#000000;fill-rule:evenodd;stroke-width:0.187917"
       id="path64-0-7-1-4"
       ry="14.022056"
       rx="25.605492"
       cy="371.35403"
       cx="200.88597"
       transform="rotate(-15.50199)" />
    <rect
       style="fill:#000000;stroke-width:0.239346"
       id="rect110-3-3-6-0-2-7"
       width="4.1820407"
       height="86.63456"
       x="395.0195"
       y="212.20367" />
    <ellipse
       style="fill:#000000;fill-rule:evenodd;stroke-width:0.187917"
       id="path64-0-7-2-2-49"
       ry="14.022056"
       rx="25.605492"
       cy="393.17755"
       cx="279.5683"
       transform="rotate(-15.50199)" />
    <rect
       style="fill:#000000;stroke-width:0.236257"
       id="rect110-3-3-6-2-0-2-1"
       width="4.1820407"
       height="84.412933"
       x="-214.71541"
       y="395.0195"
       transform="rotate(-90)" />
    <rect
       style="fill:#000000;stroke-width:0.239085"
       id="rect110-3-3-6-0-2-1-5"
       width="4.1820407"
       height="86.446022"
       x="476.67197"
       y="212.3922" />
    <ellipse
       style="fill:#000000;fill-rule:evenodd;stroke-width:0.187917"
       id="path64-0-7-2-2-4-2"
       ry="14.022056"
       rx="25.605492"
       cy="415.00095"
       cx="358.25031"
       transform="rotate(-15.50199)" />
    <rect
       style="fill:#000000;stroke-width:0.236257"
       id="rect110-3-3-6-2-0-2-1-4"
       width="4.1820407"
       height="84.412933"
       x="-214.71541"
       y="479.43246"
       transform="rotate(-90)" />
    <rect
       style="fill:#000000;stroke-width:0.241642"
       id="rect110-3-3-6-0-2-1-5-6"
       width="4.1820407"
       height="88.304871"
       x="561.08484"
       y="210.53334" />
    <ellipse
       style="fill:#000000;fill-rule:evenodd;stroke-width:0.187917"
       id="path64-0-7-2-2-4-2-4"
       ry="14.022056"
       rx="25.605492"
       cy="437.56213"
       cx="439.59244"
       transform="rotate(-15.50199)" />
    <rect
       style="fill:#000000;stroke-width:0.908893"
       id="rect20166"
       width="47.582722"
       height="20.547085"
       x="26.657776"
       y="647.22162" />
    <rect
       style="fill:#000000;stroke-width:0.241642"
       id="rect110-3-3-6-9-2-8"
       width="4.1820407"
       height="88.304871"
       x="665.98395"
       y="139.68991"
       transform="matrix(0,1,1,0,0,0)" />
    <rect
       style="fill:#000000;stroke-width:0.908893"
       id="rect20166-7"
       width="47.582722"
       height="20.547085"
       x="158.59169"
       y="-668.61572"
       transform="scale(1,-1)" />
    <path
       style="fill:#000000;stroke:#000000;stroke-width:1px;stroke-linecap:butt;stroke-linejoin:miter;stroke-opacity:1"
       d="m 302.79914,595.31319 c 0,0 20.27673,16.76209 1.08142,47.04201 l 24.60243,27.30599 c 0,0 -37.57953,-5.40712 -12.16603,20.81744 0,0 -16.22138,-23.79136 13.51782,-19.46566 0,0 -27.03564,-28.65777 -4.3257,-57.31555 z"
       id="path20327"
       sodipodi:nodetypes="ccccccc" />
    <circle
       style="fill:#000000"
       id="path23422"
       cx="432.70538"
       cy="625.83582"
       r="6.8940878" />
    <rect
       style="fill:#000000;stroke-width:0.848024"
       id="rect23548"
       width="4.866415"
       height="50.550858"
       x="744.3739"
       y="687.06055"
       transform="matrix(1,0,-0.42785645,0.9038467,0,0)" />
    <path
       style="fill:#000000;stroke:#000000;stroke-width:1px;stroke-linecap:butt;stroke-linejoin:miter;stroke-opacity:1"
       d="m 432.29985,632.18916 c 0,0 12.16603,2.16282 17.57317,-3.51463 5.40713,-5.67746 0.54073,-5.67746 0.54073,-5.67746 0,0 -4.86644,10.00316 -16.76212,6.75888 -11.89568,-3.24427 -1.35178,2.43321 -1.35178,2.43321 z"
       id="path23663" />
    <circle
       style="fill:#000000"
       id="path23422-2"
       cx="513.67706"
       cy="626.99866"
       r="6.8940878" />
    <rect
       style="fill:#000000;stroke-width:0.946965"
       id="rect23548-1"
       width="4.866415"
       height="63.034794"
       x="758.65826"
       y="662.37225"
       transform="matrix(1,0,-0.3431202,0.9392915,0,0)" />
    <path
       style="fill:#000000;stroke:#000000;stroke-width:1px;stroke-linecap:butt;stroke-linejoin:miter;stroke-opacity:1"
       d="m 513.27155,633.352 c 0,0 12.16603,2.16282 17.57317,-3.51463 5.40713,-5.67746 0.54073,-5.67746 0.54073,-5.67746 0,0 -4.86644,10.00316 -16.76211,6.75888 -11.89569,-3.24427 -1.35179,2.43321 -1.35179,2.43321 z"
       id="path23663-9" />
    <circle
       style="fill:#000000"
       id="path23422-2-9"
       cx="508.91138"
       cy="641.90295"
       r="6.8940878" />
    <path
       style="fill:#000000;stroke:#000000;stroke-width:1px;stroke-linecap:butt;stroke-linejoin:miter;stroke-opacity:1"
       d="m 508.50588,648.25637 c 0,0 12.16603,2.16282 17.57317,-3.51463 5.40713,-5.67746 0.54073,-5.67746 0.54073,-5.67746 0,0 -4.86644,10.00316 -16.76211,6.75888 -11.89569,-3.24427 -1.35179,2.43321 -1.35179,2.43321 z"
       id="path23663-9-1" />
    <circle
       style="fill:#000000"
       id="path23422-2-7"
       cx="573.37543"
       cy="629.70221"
       r="6.8940878" />
    <rect
       style="fill:#000000;stroke-width:0.946965"
       id="rect23548-1-8"
       width="4.866415"
       height="63.034794"
       x="819.34424"
       y="665.25061"
       transform="matrix(1,0,-0.3431202,0.9392915,0,0)" />
    <path
       style="fill:#000000;stroke:#000000;stroke-width:1px;stroke-linecap:butt;stroke-linejoin:miter;stroke-opacity:1"
       d="m 572.96994,636.05557 c 0,0 12.16603,2.16282 17.57317,-3.51463 5.40713,-5.67746 0.54073,-5.67746 0.54073,-5.67746 0,0 -4.86644,10.00316 -16.76211,6.75888 -11.89569,-3.24427 -1.35179,2.43321 -1.35179,2.43321 z"
       id="path23663-9-7" />
    <circle
       style="fill:#000000"
       id="path23422-2-9-7"
       cx="568.60974"
       cy="644.60657"
       r="6.8940878" />
    <path
       style="fill:#000000;stroke:#000000;stroke-width:1px;stroke-linecap:butt;stroke-linejoin:miter;stroke-opacity:1"
       d="m 568.20427,650.95994 c 0,0 12.16603,2.16282 17.57317,-3.51463 5.40713,-5.67746 0.54073,-5.67746 0.54073,-5.67746 0,0 -4.86644,10.00316 -16.76211,6.75888 -11.89569,-3.24427 -1.35179,2.43321 -1.35179,2.43321 z"
       id="path23663-9-1-9" />
    <circle
       style="fill:#000000"
       id="path23422-2-9-7-9"
       cx="563.68628"
       cy="660.55762"
       r="6.8940878" />
    <path
       style="fill:#000000;stroke:#000000;stroke-width:0.892627px;stroke-linecap:butt;stroke-linejoin:miter;stroke-opacity:1"
       d="m 564.93728,667.01847 c 0,0 9.69368,2.16282 14.002,-3.51463 4.3083,-5.67746 0.43084,-5.67746 0.43084,-5.67746 0,0 -3.87749,10.00316 -13.35575,6.75888 -9.47828,-3.24427 -1.07709,2.43321 -1.07709,2.43321 z"
       id="path23663-9-1-9-4" />
    <circle
       style="fill:#000000"
       id="path23422-2-7-7"
       cx="632.34167"
       cy="630.24292"
       r="6.8940878" />
    <rect
       style="fill:#000000;stroke-width:1.02287"
       id="rect23548-1-8-9"
       width="4.866415"
       height="73.544884"
       x="842.47931"
       y="654.33929"
       transform="matrix(1,0,-0.29408586,0.955779,0,0)" />
    <path
       style="fill:#000000;stroke:#000000;stroke-width:1px;stroke-linecap:butt;stroke-linejoin:miter;stroke-opacity:1"
       d="m 631.93618,636.59628 c 0,0 12.16603,2.16282 17.57317,-3.51463 5.40713,-5.67746 0.54073,-5.67746 0.54073,-5.67746 0,0 -4.86644,10.00316 -16.76211,6.75888 -11.89569,-3.24427 -1.35179,2.43321 -1.35179,2.43321 z"
       id="path23663-9-7-0" />
    <circle
       style="fill:#000000"
       id="path23422-2-9-7-5"
       cx="627.57599"
       cy="645.14728"
       r="6.8940878" />
    <path
       style="fill:#000000;stroke:#000000;stroke-width:1px;stroke-linecap:butt;stroke-linejoin:miter;stroke-opacity:1"
       d="m 627.17051,651.50065 c 0,0 12.16603,2.16282 17.57317,-3.51463 5.40713,-5.67746 0.54073,-5.67746 0.54073,-5.67746 0,0 -4.86644,10.00316 -16.76211,6.75888 -11.89569,-3.24427 -1.35179,2.43321 -1.35179,2.43321 z"
       id="path23663-9-1-9-2" />
    <circle
       style="fill:#000000"
       id="path23422-2-7-7-4"
       cx="623.2218"
       cy="660.94574"
       r="6.8940878" />
    <path
       style="fill:#000000;stroke:#000000;stroke-width:1px;stroke-linecap:butt;stroke-linejoin:miter;stroke-opacity:1"
       d="m 622.81627,667.2991 c 0,0 12.16603,2.16282 17.57317,-3.51463 5.40713,-5.67746 0.54073,-5.67746 0.54073,-5.67746 0,0 -4.86644,10.00316 -16.76211,6.75888 -11.89569,-3.24427 -1.35179,2.43321 -1.35179,2.43321 z"
       id="path23663-9-7-0-3" />
    <circle
       style="fill:#000000"
       id="path23422-2-9-7-5-2"
       cx="618.45612"
       cy="675.8501"
       r="6.8940878" />
    <path
       style="fill:#000000;stroke:#000000;stroke-width:1px;stroke-linecap:butt;stroke-linejoin:miter;stroke-opacity:1"
       d="m 618.0506,682.20347 c 0,0 12.16603,2.16282 17.57317,-3.51463 5.40713,-5.67746 0.54073,-5.67746 0.54073,-5.67746 0,0 -4.86644,10.00316 -16.76211,6.75888 -11.89569,-3.24427 -1.35179,2.43321 -1.35179,2.43321 z"
       id="path23663-9-1-9-2-5" />
    <rect
       style="fill:#000000;stroke-width:0.241642"
       id="rect110-3-3-2"
       width="4.1820407"
       height="88.304871"
       x="465.78369"
       y="47.270855" />
    <ellipse
       style="fill:#000000;fill-rule:evenodd;stroke-width:0.187917"
       id="path64-0-70"
       ry="14.022056"
       rx="25.605492"
       cy="254.7674"
       cx="391.39322"
       transform="rotate(-15.50199)" />
    <path
       style="fill:#000000;stroke:#000000;stroke-width:1.15659px;stroke-linecap:butt;stroke-linejoin:miter;stroke-opacity:1"
       d="m 470.27892,47.856078 c 0,0 0.71062,6.306468 2.80629,8.933783 5.39536,6.764108 19.29066,8.511261 23.63337,15.686331 4.21256,6.960052 0.15532,22.917632 0.15532,22.917632 v 0 c 0,0 10.14309,-30.258854 -27.83544,-25.597648 z"
       id="path24587"
       sodipodi:nodetypes="caacccc" />
    <rect
       style="fill:#000000;stroke-width:0.241642"
       id="rect110-3-3-2-8"
       width="4.1820407"
       height="88.304871"
       x="538.39539"
       y="47.811573" />
    <ellipse
       style="fill:#000000;fill-rule:evenodd;stroke-width:0.187917"
       id="path64-0-70-2"
       ry="14.022056"
       rx="25.605492"
       cy="274.69547"
       cx="461.21875"
       transform="rotate(-15.50199)" />
    <path
       style="fill:#000000;stroke:#000000;stroke-width:1.15659px;stroke-linecap:butt;stroke-linejoin:miter;stroke-opacity:1"
       d="m 542.89059,48.396797 c 0,0 0.71062,6.306468 2.80629,8.933783 5.39536,6.764108 19.29066,8.511261 23.63337,15.686331 4.21256,6.960052 0.15532,22.917632 0.15532,22.917632 v 0 c 0,0 10.14309,-30.258854 -27.83544,-25.597648 z"
       id="path24587-6"
       sodipodi:nodetypes="caacccc" />
    <path
       style="fill:#000000;stroke:#000000;stroke-width:1.15659px;stroke-linecap:butt;stroke-linejoin:miter;stroke-opacity:1"
       d="m 541.60703,68.633486 c 0,0 0.71062,6.306468 2.80629,8.933783 5.39536,6.764108 19.29066,8.511261 23.63337,15.686331 4.21256,6.96005 0.15532,22.91763 0.15532,22.91763 v 0 c 0,0 10.14309,-30.258852 -27.83544,-25.597646 z"
       id="path24587-6-5"
       sodipodi:nodetypes="caacccc" />
    <rect
       style="fill:#000000;stroke-width:0.271775"
       id="rect110-3-3-2-8-2"
       width="4.1820407"
       height="111.70134"
       x="625.14484"
       y="24.415131" />
    <ellipse
       style="fill:#000000;fill-rule:evenodd;stroke-width:0.187917"
       id="path64-0-70-2-7"
       ry="14.022056"
       rx="25.605492"
       cy="297.88116"
       cx="544.81238"
       transform="rotate(-15.50199)" />
    <path
       style="fill:#000000;stroke:#000000;stroke-width:1.15659px;stroke-linecap:butt;stroke-linejoin:miter;stroke-opacity:1"
       d="m 629.64006,48.396821 c 0,0 0.71062,6.306468 2.80629,8.933783 5.39536,6.764108 19.29066,8.511261 23.63337,15.686331 4.21256,6.960052 0.15532,22.917632 0.15532,22.917632 v 0 c 0,0 10.14309,-30.258854 -27.83544,-25.597648 z"
       id="path24587-6-8"
       sodipodi:nodetypes="caacccc" />
    <path
       style="fill:#000000;stroke:#000000;stroke-width:1.15659px;stroke-linecap:butt;stroke-linejoin:miter;stroke-opacity:1"
       d="m 628.88052,26.456723 c 0,0 0.71062,6.306468 2.80629,8.933783 5.39536,6.764108 19.29066,8.511261 23.63337,15.686331 4.21256,6.960052 0.15532,22.917632 0.15532,22.917632 v 0 c 0,0 10.14309,-30.258854 -27.83544,-25.597648 z"
       id="path24587-6-8-8"
       sodipodi:nodetypes="caacccc" />
    <path
       style="fill:#000000;stroke:#000000;stroke-width:1.15659px;stroke-linecap:butt;stroke-linejoin:miter;stroke-opacity:1"
       d="m 628.3565,68.63351 c 0,0 0.71062,6.306468 2.80629,8.933783 5.39536,6.764108 19.29066,8.511261 23.63337,15.686331 4.21256,6.960046 0.15532,22.917626 0.15532,22.917626 v 0 c 0,0 10.14309,-30.258848 -27.83544,-25.597642 z"
       id="path24587-6-5-0"
       sodipodi:nodetypes="caacccc" />
    <rect
       style="fill:#000000;stroke-width:0.282736"
       id="rect110-3-3-2-8-2-1"
       width="4.1820407"
       height="120.89346"
       x="693.81537"
       y="17.299116" />
    <ellipse
       style="fill:#000000;fill-rule:evenodd;stroke-width:0.187917"
       id="path64-0-70-2-7-7"
       ry="14.022056"
       rx="25.605492"
       cy="317.0867"
       cx="610.74847"
       transform="rotate(-15.50199)" />
    <path
       style="fill:#000000;stroke:#000000;stroke-width:1.15659px;stroke-linecap:butt;stroke-linejoin:miter;stroke-opacity:1"
       d="m 698.31059,41.280813 c 0,0 0.71062,6.30646 2.80629,8.93378 5.39536,6.76411 19.29066,8.51126 23.63337,15.68633 4.21256,6.96005 0.15532,22.91763 0.15532,22.91763 v 0 c 0,0 10.14309,-30.25885 -27.83544,-25.59765 z"
       id="path24587-6-8-89"
       sodipodi:nodetypes="caacccc" />
    <path
       style="fill:#000000;stroke:#000000;stroke-width:1.15659px;stroke-linecap:butt;stroke-linejoin:miter;stroke-opacity:1"
       d="m 697.55105,19.34071 c 0,0 0.71062,6.306463 2.80629,8.933783 5.39536,6.76411 19.29066,8.51126 23.63337,15.68633 4.21256,6.96005 0.15532,22.91763 0.15532,22.91763 v 0 c 0,0 10.14309,-30.25885 -27.83544,-25.59764 z"
       id="path24587-6-8-8-8"
       sodipodi:nodetypes="caacccc" />
    <path
       style="fill:#000000;stroke:#000000;stroke-width:1.15659px;stroke-linecap:butt;stroke-linejoin:miter;stroke-opacity:1"
       d="m 697.02703,61.517493 c 0,0 0.71062,6.30647 2.80629,8.93379 5.39536,6.7641 19.29066,8.51126 23.63337,15.68633 4.21256,6.960037 0.15532,22.917617 0.15532,22.917617 v 0 c 0,0 10.14309,-30.258837 -27.83544,-25.597637 z"
       id="path24587-6-5-0-1"
       sodipodi:nodetypes="caacccc" />
    <path
       style="fill:#000000;stroke:#000000;stroke-width:1.15659px;stroke-linecap:butt;stroke-linejoin:miter;stroke-opacity:1"
       d="m 695.78657,81.457593 c 0,0 0.71062,6.30647 2.80629,8.933787 5.39536,6.7641 19.29066,8.51126 23.63337,15.68633 4.21256,6.96004 0.15532,22.91762 0.15532,22.91762 v 0 c 0,0 10.14309,-30.25884 -27.83544,-25.59764 z"
       id="path24587-6-5-0-1-2"
       sodipodi:nodetypes="caacccc" />
  </g>
</svg>
