<?xml version="1.0" encoding="UTF-8" standalone="no"?>
<!-- Created with Inkscape (http://www.inkscape.org/) -->

<svg
   width="720px"
   height="720px"
   viewBox="0 0 720 720"
   version="1.1"
   id="SVGRoot"
   sodipodi:docname="música_pausa_5_1-8.svg"
   inkscape:version="1.1.2 (b8e25be833, 2022-02-05)"
   xmlns:inkscape="http://www.inkscape.org/namespaces/inkscape"
   xmlns:sodipodi="http://sodipodi.sourceforge.net/DTD/sodipodi-0.dtd"
   xmlns="http://www.w3.org/2000/svg"
   xmlns:svg="http://www.w3.org/2000/svg">
  <sodipodi:namedview
     id="namedview14"
     pagecolor="#ffffff"
     bordercolor="#666666"
     borderopacity="1.0"
     inkscape:pageshadow="2"
     inkscape:pageopacity="0.0"
     inkscape:pagecheckerboard="0"
     inkscape:document-units="px"
     showgrid="false"
     inkscape:zoom="0.63343216"
     inkscape:cx="592.80224"
     inkscape:cy="375.73085"
     inkscape:window-width="1366"
     inkscape:window-height="705"
     inkscape:window-x="-8"
     inkscape:window-y="-8"
     inkscape:window-maximized="1"
     inkscape:current-layer="layer1" />
  <defs
     id="defs9">
    <rect
       x="188.87678"
       y="243.16929"
       width="43.58695"
       height="138.40768"
       id="rect14093" />
    <rect
       x="185.81805"
       y="236.28714"
       width="87.173898"
       height="109.34971"
       id="rect4809" />
    <rect
       x="188.87679"
       y="243.1693"
       width="43.586948"
       height="138.40768"
       id="rect14093-7" />
  </defs>
  <g
     inkscape:label="Camada 1"
     inkscape:groupmode="layer"
     id="layer1">
    <text
       xml:space="preserve"
       id="text4807"
       style="font-style:normal;font-weight:normal;font-size:93.3333px;line-height:1.25;font-family:sans-serif;white-space:pre;shape-inside:url(#rect4809);fill:#000000;fill-opacity:1;stroke:none"
       transform="translate(41.93229,-82.124947)" />
    <circle
       style="fill:#000000;stroke-width:8.37164"
       id="path23422-2-7"
       cx="319.2244"
       cy="162.60027"
       r="57.714798" />
    <rect
       style="fill:#000000;stroke-width:7.92765"
       id="rect23548-1-8"
       width="40.739857"
       height="527.70441"
       x="512.07062"
       y="129.9901"
       transform="matrix(1,0,-0.3431202,0.9392915,0,0)" />
    <path
       style="fill:#000000;stroke:#000000;stroke-width:8.37164px;stroke-linecap:butt;stroke-linejoin:miter;stroke-opacity:1"
       d="m 315.82979,215.78831 c 0,0 101.84959,18.10634 147.1162,-29.42321 45.26653,-47.52963 4.5268,-47.52963 4.5268,-47.52963 0,0 -40.74007,83.74282 -140.3263,56.58289 -99.5864,-27.15985 -11.3167,20.36995 -11.3167,20.36995 z"
       id="path23663-9-7" />
    <circle
       style="fill:#000000;stroke-width:8.37164"
       id="path23422-2-9-7"
       cx="279.32779"
       cy="287.37415"
       r="57.714798" />
    <path
       style="fill:#000000;stroke:#000000;stroke-width:8.37164px;stroke-linecap:butt;stroke-linejoin:miter;stroke-opacity:1"
       d="m 275.93334,340.56228 c 0,0 101.84958,18.10635 147.11619,-29.42321 45.26653,-47.52962 4.5268,-47.52962 4.5268,-47.52962 0,0 -40.74007,83.74281 -140.32629,56.58288 -99.58641,-27.15985 -11.3167,20.36995 -11.3167,20.36995 z"
       id="path23663-9-1-9" />
    <circle
       style="fill:#000000;stroke-width:8.37164"
       id="path23422-2-9-7-9"
       cx="238.11035"
       cy="420.91055"
       r="57.714798" />
    <path
       style="fill:#000000;stroke:#000000;stroke-width:7.47275px;stroke-linecap:butt;stroke-linejoin:miter;stroke-opacity:1"
       d="m 248.58328,474.99847 c 0,0 81.15197,18.10634 117.21966,-29.42321 36.06753,-47.52963 3.60684,-47.52963 3.60684,-47.52963 0,0 -32.46094,83.74282 -111.80949,56.58289 -79.34872,-27.15985 -9.01701,20.36995 -9.01701,20.36995 z"
       id="path23663-9-1-9-4" />
  </g>
</svg>
