<?xml version="1.0" encoding="UTF-8" standalone="no"?>
<!-- Created with Inkscape (http://www.inkscape.org/) -->

<svg
   width="720px"
   height="720px"
   viewBox="0 0 720 720"
   version="1.1"
   id="SVGRoot"
   sodipodi:docname="música_pausa_6_1-16.svg"
   inkscape:version="1.1.2 (b8e25be833, 2022-02-05)"
   xmlns:inkscape="http://www.inkscape.org/namespaces/inkscape"
   xmlns:sodipodi="http://sodipodi.sourceforge.net/DTD/sodipodi-0.dtd"
   xmlns="http://www.w3.org/2000/svg"
   xmlns:svg="http://www.w3.org/2000/svg">
  <sodipodi:namedview
     id="namedview14"
     pagecolor="#ffffff"
     bordercolor="#666666"
     borderopacity="1.0"
     inkscape:pageshadow="2"
     inkscape:pageopacity="0.0"
     inkscape:pagecheckerboard="0"
     inkscape:document-units="px"
     showgrid="false"
     inkscape:zoom="0.63343216"
     inkscape:cx="592.80224"
     inkscape:cy="375.73085"
     inkscape:window-width="1366"
     inkscape:window-height="705"
     inkscape:window-x="-8"
     inkscape:window-y="-8"
     inkscape:window-maximized="1"
     inkscape:current-layer="layer1" />
  <defs
     id="defs9">
    <rect
       x="188.87678"
       y="243.16929"
       width="43.58695"
       height="138.40768"
       id="rect14093" />
    <rect
       x="185.81805"
       y="236.28714"
       width="87.173898"
       height="109.34971"
       id="rect4809" />
    <rect
       x="188.87679"
       y="243.1693"
       width="43.586948"
       height="138.40768"
       id="rect14093-7" />
  </defs>
  <g
     inkscape:label="Camada 1"
     inkscape:groupmode="layer"
     id="layer1">
    <circle
       style="fill:#000000;stroke-width:8.50644"
       id="path23422-2-7-7"
       cx="341.34537"
       cy="104.18844"
       r="58.64418" />
    <rect
       style="fill:#000000;stroke-width:8.70099"
       id="rect23548-1-8-9"
       width="41.395893"
       height="625.60553"
       x="511.35004"
       y="65.9403"
       transform="matrix(1,0,-0.29408586,0.955779,0,0)" />
    <path
       style="fill:#000000;stroke:#000000;stroke-width:8.50644px;stroke-linecap:butt;stroke-linejoin:miter;stroke-opacity:1"
       d="m 337.89603,158.23295 c 0,0 103.48967,18.39791 149.48521,-29.89701 45.99545,-48.295003 4.59969,-48.295003 4.59969,-48.295003 0,0 -41.39611,85.091333 -142.58598,57.494043 -101.19003,-27.59721 -11.49892,20.69797 -11.49892,20.69797 z"
       id="path23663-9-7-0" />
    <circle
       style="fill:#000000;stroke-width:8.50644"
       id="path23422-2-9-7-5"
       cx="300.8063"
       cy="230.97154"
       r="58.64418" />
    <path
       style="fill:#000000;stroke:#000000;stroke-width:8.50644px;stroke-linecap:butt;stroke-linejoin:miter;stroke-opacity:1"
       d="m 297.35711,285.01616 c 0,0 103.48967,18.39791 149.48522,-29.89701 45.99545,-48.295 4.59969,-48.295 4.59969,-48.295 0,0 -41.39611,85.09133 -142.58598,57.49404 -101.19003,-27.59721 -11.49893,20.69797 -11.49893,20.69797 z"
       id="path23663-9-1-9-2" />
    <circle
       style="fill:#000000;stroke-width:8.50644"
       id="path23422-2-7-7-4"
       cx="263.76767"
       cy="365.36029"
       r="58.64418" />
    <path
       style="fill:#000000;stroke:#000000;stroke-width:8.50644px;stroke-linecap:butt;stroke-linejoin:miter;stroke-opacity:1"
       d="m 260.31801,419.40481 c 0,0 103.48967,18.39791 149.48521,-29.89701 45.99546,-48.295 4.59969,-48.295 4.59969,-48.295 0,0 -41.39611,85.09133 -142.58597,57.49404 -101.19004,-27.5972 -11.49893,20.69797 -11.49893,20.69797 z"
       id="path23663-9-7-0-3" />
    <circle
       style="fill:#000000;stroke-width:8.50644"
       id="path23422-2-9-7-5-2"
       cx="223.22859"
       cy="492.1434"
       r="58.64418" />
    <path
       style="fill:#000000;stroke:#000000;stroke-width:8.50644px;stroke-linecap:butt;stroke-linejoin:miter;stroke-opacity:1"
       d="m 219.7791,546.18802 c 0,0 103.48967,18.39791 149.48521,-29.89701 45.99545,-48.295 4.59969,-48.295 4.59969,-48.295 0,0 -41.39611,85.09133 -142.58597,57.49404 -101.19004,-27.5972 -11.49893,20.69797 -11.49893,20.69797 z"
       id="path23663-9-1-9-2-5" />
  </g>
</svg>
