<?xml version="1.0" encoding="UTF-8" standalone="no"?>
<!-- Created with Inkscape (http://www.inkscape.org/) -->

<svg
   width="720px"
   height="720px"
   viewBox="0 0 720 720"
   version="1.1"
   id="SVGRoot"
   sodipodi:docname="música_4_1-3_CF.svg"
   inkscape:version="1.1.2 (b8e25be833, 2022-02-05)"
   xmlns:inkscape="http://www.inkscape.org/namespaces/inkscape"
   xmlns:sodipodi="http://sodipodi.sourceforge.net/DTD/sodipodi-0.dtd"
   xmlns="http://www.w3.org/2000/svg"
   xmlns:svg="http://www.w3.org/2000/svg">
  <sodipodi:namedview
     id="namedview14"
     pagecolor="#ffffff"
     bordercolor="#666666"
     borderopacity="1.0"
     inkscape:pageshadow="2"
     inkscape:pageopacity="0.0"
     inkscape:pagecheckerboard="0"
     inkscape:document-units="px"
     showgrid="false"
     inkscape:zoom="0.89580835"
     inkscape:cx="608.94722"
     inkscape:cy="348.28878"
     inkscape:window-width="1366"
     inkscape:window-height="705"
     inkscape:window-x="-8"
     inkscape:window-y="-8"
     inkscape:window-maximized="1"
     inkscape:current-layer="layer1" />
  <defs
     id="defs9">
    <rect
       x="188.87678"
       y="243.16929"
       width="43.58695"
       height="138.40768"
       id="rect14093" />
    <rect
       x="185.81805"
       y="236.28714"
       width="87.173898"
       height="109.34971"
       id="rect4809" />
    <rect
       x="188.87679"
       y="243.1693"
       width="43.586948"
       height="138.40768"
       id="rect14093-7" />
    <rect
       x="185.81805"
       y="236.28714"
       width="87.173897"
       height="109.34971"
       id="rect4809-4" />
  </defs>
  <g
     inkscape:label="Camada 1"
     inkscape:groupmode="layer"
     id="layer1">
    <rect
       style="fill:#000000;stroke-width:0.613983"
       id="rect110-3-3-6-2-0-1"
       width="10.868268"
       height="219.37195"
       x="-153.93309"
       y="88.42778"
       transform="rotate(-90)" />
    <rect
       style="fill:#000000;stroke-width:0.613983"
       id="rect110-3-3-6-2-0-1-5"
       width="10.868268"
       height="219.37195"
       x="-153.93309"
       y="457.70386"
       transform="rotate(-90)" />
    <rect
       style="fill:#000000;stroke-width:0.288848"
       id="rect110-3-3-6-2-0-1-5-7"
       width="10.868268"
       height="48.551941"
       x="-93.417465"
       y="-191.61682"
       transform="scale(-1)" />
    <rect
       style="fill:#000000;stroke-width:0.288848"
       id="rect110-3-3-6-2-0-1-5-7-2"
       width="10.868268"
       height="48.551941"
       x="-680.01514"
       y="-191.61682"
       transform="scale(-1)" />
    <ellipse
       style="fill:#000000;fill-rule:evenodd;stroke-width:0.521751"
       id="path64-0-7-2-2"
       ry="38.932156"
       rx="71.093506"
       cy="543.37213"
       cx="210.44841"
       transform="rotate(-15.50199)" />
    <text
       xml:space="preserve"
       id="text4807"
       style="font-style:normal;font-weight:normal;font-size:93.3333px;line-height:1.25;font-family:sans-serif;white-space:pre;shape-inside:url(#rect4809);fill:#000000;fill-opacity:1;stroke:none"
       transform="translate(30.881383,-34.763916)" />
    <text
       xml:space="preserve"
       id="text14091"
       style="font-style:normal;font-variant:normal;font-weight:normal;font-stretch:normal;font-size:96px;line-height:1.25;font-family:AmpleSoundTab;-inkscape-font-specification:AmpleSoundTab;white-space:pre;shape-inside:url(#rect14093);fill:#000000;fill-opacity:1;stroke:none"
       transform="matrix(1.4696486,0,0,1.4696486,77.865473,-342.60858)"><tspan
         x="188.87695"
         y="329.82502"
         id="tspan32900">3</tspan></text>
    <circle
       style="fill:#000000;stroke-width:3.20429"
       id="path23422"
       cx="587.41827"
       cy="365.52921"
       r="22.090681" />
    <rect
       style="fill:#000000;stroke-width:2.71732"
       id="rect23548"
       width="15.593422"
       height="161.97978"
       x="809.84357"
       y="387.26208"
       transform="matrix(1,0,-0.42785645,0.9038467,0,0)" />
    <path
       style="fill:#000000;stroke:#000000;stroke-width:3.20429px;stroke-linecap:butt;stroke-linejoin:miter;stroke-opacity:1"
       d="m 586.11884,385.88717 c 0,0 38.98353,6.93031 56.30959,-11.2619 17.32603,-18.19225 1.73266,-18.19225 1.73266,-18.19225 0,0 -15.5935,32.05306 -53.71075,21.65744 -38.11725,-10.3956 -4.3315,7.79671 -4.3315,7.79671 z"
       id="path23663" />
    <circle
       style="fill:#000000;stroke-width:3.20429"
       id="path23422-5"
       cx="120.98122"
       cy="365.52969"
       r="22.090681" />
    <rect
       style="fill:#000000;stroke-width:2.71732"
       id="rect23548-1"
       width="15.593422"
       height="161.97978"
       x="343.40674"
       y="387.26263"
       transform="matrix(1,0,-0.42785645,0.9038467,0,0)" />
    <path
       style="fill:#000000;stroke:#000000;stroke-width:3.20429px;stroke-linecap:butt;stroke-linejoin:miter;stroke-opacity:1"
       d="m 119.68177,385.88765 c 0,0 38.98353,6.93031 56.30959,-11.2619 17.32603,-18.19225 1.73266,-18.19225 1.73266,-18.19225 0,0 -15.5935,32.05306 -53.71075,21.65744 -38.11725,-10.3956 -4.3315,7.79671 -4.3315,7.79671 z"
       id="path23663-2" />
    <text
       xml:space="preserve"
       id="text4807-5"
       style="font-style:normal;font-weight:normal;font-size:93.3333px;line-height:1.25;font-family:sans-serif;white-space:pre;shape-inside:url(#rect4809-4);fill:#000000;fill-opacity:1;stroke:none"
       transform="matrix(0.50540084,0,0,0.50540084,220.94158,162.30408)" />
    <rect
       style="fill:#000000;stroke-width:0.67897"
       id="rect110-3-3-2"
       width="11.750752"
       height="248.12018"
       x="407.21497"
       y="205.95076" />
    <ellipse
       style="fill:#000000;fill-rule:evenodd;stroke-width:0.528012"
       id="path64-0-70"
       ry="39.399357"
       rx="71.946632"
       cy="545.35791"
       cx="211.44388"
       transform="rotate(-15.50199)" />
    <path
       style="fill:#000000;stroke:#000000;stroke-width:3.24979px;stroke-linecap:butt;stroke-linejoin:miter;stroke-opacity:1"
       d="m 418.96573,205.95076 c 0,0 3.08175,19.28198 8.7653,26.74661 16.09407,21.13753 54.20307,23.91505 66.40531,44.07564 11.83647,19.55647 0.43644,64.39427 0.43644,64.39427 v 0 c 0,0 28.50016,-85.02172 -78.21247,-71.9246 z"
       id="path24587"
       sodipodi:nodetypes="caacccc" />
  </g>
</svg>
