<?xml version="1.0" encoding="UTF-8" standalone="no"?>
<!-- Created with Inkscape (http://www.inkscape.org/) -->

<svg
   width="720px"
   height="720px"
   viewBox="0 0 720 720"
   version="1.1"
   id="SVGRoot"
   sodipodi:docname="música_4_1-8.svg"
   inkscape:version="1.1.2 (b8e25be833, 2022-02-05)"
   xmlns:inkscape="http://www.inkscape.org/namespaces/inkscape"
   xmlns:sodipodi="http://sodipodi.sourceforge.net/DTD/sodipodi-0.dtd"
   xmlns="http://www.w3.org/2000/svg"
   xmlns:svg="http://www.w3.org/2000/svg">
  <sodipodi:namedview
     id="namedview14"
     pagecolor="#ffffff"
     bordercolor="#666666"
     borderopacity="1.0"
     inkscape:pageshadow="2"
     inkscape:pageopacity="0.0"
     inkscape:pagecheckerboard="0"
     inkscape:document-units="px"
     showgrid="false"
     inkscape:zoom="0.46235269"
     inkscape:cx="191.41232"
     inkscape:cy="272.51923"
     inkscape:window-width="1366"
     inkscape:window-height="705"
     inkscape:window-x="-8"
     inkscape:window-y="-8"
     inkscape:window-maximized="1"
     inkscape:current-layer="layer1" />
  <defs
     id="defs9">
    <rect
       x="188.87678"
       y="243.16929"
       width="43.58695"
       height="138.40768"
       id="rect14093" />
    <rect
       x="185.81805"
       y="236.28714"
       width="87.173898"
       height="109.34971"
       id="rect4809" />
    <rect
       x="188.87679"
       y="243.1693"
       width="43.586948"
       height="138.40768"
       id="rect14093-7" />
  </defs>
  <g
     inkscape:label="Camada 1"
     inkscape:groupmode="layer"
     id="layer1">
    <text
       xml:space="preserve"
       id="text4807"
       style="font-style:normal;font-weight:normal;font-size:93.3333px;line-height:1.25;font-family:sans-serif;white-space:pre;shape-inside:url(#rect4809);fill:#000000;fill-opacity:1;stroke:none"
       transform="matrix(4.9112509,0,0,4.9112509,-2526.2101,-264.22802)" />
    <rect
       style="fill:#000000;stroke-width:1.33476"
       id="rect110-3-3-2-8-2"
       width="20.539051"
       height="548.59332"
       x="392.36679"
       y="26.415131" />
    <ellipse
       style="fill:#000000;fill-rule:evenodd;stroke-width:0.922908"
       id="path64-0-70-2-7"
       ry="68.865837"
       rx="125.755"
       cy="657.15558"
       cx="120.23997"
       transform="rotate(-15.50199)" />
    <path
       style="fill:#000000;stroke:#000000;stroke-width:5.6803px;stroke-linecap:butt;stroke-linejoin:miter;stroke-opacity:1"
       d="m 414.44396,144.19523 c 0,0 3.49004,30.97265 13.7824,43.87605 26.49796,33.22023 94.74127,41.80094 116.06941,77.03951 20.68894,34.18256 0.76281,112.55424 0.76281,112.55424 v 0 c 0,0 49.81526,-148.60883 -136.70683,-125.71647 z"
       id="path24587-6-8"
       sodipodi:nodetypes="caacccc" />
    <path
       style="fill:#000000;stroke:#000000;stroke-width:5.6803px;stroke-linecap:butt;stroke-linejoin:miter;stroke-opacity:1"
       d="m 410.71367,36.441903 c 0,0 3.49004,30.972647 13.7824,43.87605 26.49796,33.220227 94.74127,41.800937 116.06941,77.039507 20.68894,34.18256 0.76281,112.55424 0.76281,112.55424 v 0 c 0,0 49.81526,-148.60882 -136.70683,-125.71647 z"
       id="path24587-6-8-8"
       sodipodi:nodetypes="caacccc" />
    <path
       style="fill:#000000;stroke:#000000;stroke-width:5.6803px;stroke-linecap:butt;stroke-linejoin:miter;stroke-opacity:1"
       d="m 408.14008,243.58269 c 0,0 3.49003,30.97264 13.78239,43.87605 26.49797,33.22023 94.74127,41.80094 116.06941,77.03951 20.68894,34.18253 0.76282,112.55421 0.76282,112.55421 v 0 c 0,0 49.81526,-148.6088 -136.70683,-125.71645 z"
       id="path24587-6-5-0"
       sodipodi:nodetypes="caacccc" />
  </g>
</svg>
